<?xml version="1.0" encoding="UTF-8" standalone="no"?><svg xmlns="http://www.w3.org/2000/svg" xmlns:xlink="http://www.w3.org/1999/xlink" fill="#000000" height="446.5" preserveAspectRatio="xMidYMid meet" version="1" viewBox="-0.1 -0.3 350.2 446.5" width="350.2" zoomAndPan="magnify"><linearGradient gradientUnits="userSpaceOnUse" id="a" x1="106.951" x2="2.241" xlink:actuate="onLoad" xlink:show="other" xlink:type="simple" y1="231.214" y2="49.85"><stop offset="0" stop-color="#605dc8"/><stop offset="1" stop-color="#605dc8"/></linearGradient><path d="M148.7,82.4c-0.7,3.2-3.1,5.7-5.7,7.5c-2.7,1.7-6.6,2.1-9.6,1.3c-3.2-0.9-5.7-3-7.5-5.7 c-3.3-4.9-6.5-9.8-9.8-14.7c-4.4-6.7-8.9-13.3-13.3-20c-0.2,11.2-0.9,22.5-2.2,33.6c-2,18-5.1,35.8-9.5,53.3 c-4.2,16.6-9.5,33-16,48.9c-6.8,16.7-14.5,33-23.4,48.7c-9,15.7-19.2,30.6-30.4,44.9c-2,2.5-5.8,3.5-8.8,3.7 c-3.3,0.1-6.5-1.5-8.8-3.7c-2.3-2.1-3.7-5.8-3.7-8.8c-0.1-1.7,0.3-3.3,1.1-4.8c0.5-1.5,1.3-2.8,2.5-4c3.9-5.1,7.7-10.3,11.3-15.6 c13.6-20,25.2-41.3,34.7-63.6c2.5-6.1,4.9-12.3,7.2-18.6c8.4-23.8,14.4-48.4,17.9-73.3c0.6-4.4,1.1-8.9,1.5-13.3 c1-10.9,1.5-21.9,1.6-32.8C64.3,57.6,49.7,68.9,34.2,78.7c-2.9,1.8-6.4,2-9.6,1.3c-3.2-0.7-5.7-3.1-7.5-5.7 c-1.7-2.7-2.1-6.6-1.3-9.6c0.9-3.1,3-5.7,5.7-7.5c7.1-4.5,14-9.4,20.7-14.5c3-2.3,5.9-4.7,8.8-7.1c11.6-9.8,22.4-20.5,32.3-32 c2.6-3,6.8-3.9,10.5-3.4c4,0.5,6.9,2.6,9.1,6c3.3,4.9,6.5,9.8,9.8,14.7c11.5,17.3,23.1,34.7,34.6,52 C149.3,75.6,149.4,79.3,148.7,82.4z" fill="url(#a)"/><linearGradient gradientUnits="userSpaceOnUse" id="b" x1="140.84" x2="83.641" xlink:actuate="onLoad" xlink:show="other" xlink:type="simple" y1="293.612" y2="194.542"><stop offset="0" stop-color="#605dc8"/><stop offset="1" stop-color="#605dc8"/></linearGradient><path d="M223.3,238.7c-0.2,3.5-1.3,6.3-3.7,8.8 c-2.3,2.5-5.6,3.5-8.8,3.7c-3.1,0.1-6.7-1.5-8.8-3.7c-2.1-2.1-3.9-5.8-3.7-8.8c0.3-4.9,0.2-9.7-0.3-14.5c-0.6-3.8-1.6-7.5-3-11.1 c-1.4-3.1-3.1-6.1-5.1-8.9c-1.6-1.9-3.4-3.7-5.3-5.3c-1.7-1.2-3.6-2.3-5.5-3.2c-2.6-1-5.3-1.7-8.1-2.2c-4.4-0.4-8.7-0.3-13.1,0.2 c-7.3,1.1-14.5,3.1-21.5,5.3c-6.5,2.1-12.9,4.4-19.2,7c-3.9,1.7-7.7,3.4-11.5,5.3c-14.4,7.1-28.1,15.6-40.9,25.3 c-3.4,2.6-6.7,5.4-9.9,8.2c-6.4,5.5-12.4,11.4-18.2,17.5c-2.9,3.1-5.7,6.2-8.4,9.5c-1.3,1.6-2.6,3.2-3.9,4.8c-1,1.2-1.8,2.5-3.1,3.5 c-1.6,1.5-3.4,2.6-5.5,3.2c-1.1,0.1-2.2,0.3-3.3,0.4c-3.3,0.1-6.5-1.5-8.8-3.7c-2.3-2.1-3.7-5.8-3.7-8.8c0-2.8,1.3-7,3.7-8.8 c1.2-1,2.1-2.3,3.1-3.5c10.9-13.7,23.4-26.2,37-37.2c14.3-11.6,29.6-21.9,46-30.2c8.6-4.4,17.6-8.3,26.6-11.8 c8.3-3.2,16.8-6,25.4-8.1c5.5-1.3,11.1-2.3,16.7-2.8c4.6-0.5,9.3-0.6,13.9,0c3.2,0.4,6.3,0.8,9.4,1.6c3.1,0.8,6.1,2.1,9.1,3.4 c4.6,2,8.8,5.1,12.5,8.5c7.5,6.8,12.7,15.8,16.1,25.2c1.8,5.1,2.7,10.2,3.4,15.6C223.6,228.2,223.7,233.5,223.3,238.7z" fill="url(#b)"/><linearGradient gradientUnits="userSpaceOnUse" id="c" x1="263.054" x2="263.054" xlink:actuate="onLoad" xlink:show="other" xlink:type="simple" y1="217.291" y2="78.952"><stop offset="0" stop-color="#605dc8"/><stop offset="1" stop-color="#605dc8"/></linearGradient><path d="M291.6,90c-2.7,6.4-5.4,12.7-8.1,19.1 c-9.5,22.4-19,44.9-28.5,67.3c-1.2,2.9-4.6,4.8-7.5,5.7c-3.2,1-6.7,0.3-9.6-1.3c-2.7-1.4-4.9-4.6-5.7-7.5c-0.5-1.7-0.6-3.3-0.2-5 c0.1-1.7,0.6-3.2,1.5-4.6c2.7-6.4,5.4-12.7,8.1-19.1c9.5-22.4,19-44.9,28.5-67.3c1.2-2.9,4.6-4.8,7.5-5.7c3.2-1,6.7-0.3,9.6,1.3 c2.7,1.4,4.9,4.6,5.7,7.5c0.5,1.7,0.6,3.3,0.2,5C293,87,292.5,88.5,291.6,90z M348,163c-1.7-2.7-4.3-5-7.5-5.7 c-3.3-0.7-6.7-0.5-9.6,1.3c-14.5,8.4-28,18.5-40.4,29.8c-2.3,2.1-3.7,5.8-3.7,8.8c0,3.1,1.4,6.7,3.7,8.8c5.2,4.7,12.5,4.7,17.7,0 c4.1-3.7,8.3-7.3,12.7-10.7c7.2-5.5,14.8-10.6,22.6-15.1c2.7-1.6,4.9-4.4,5.7-7.5C350.1,169.7,349.7,165.7,348,163z M195.8,53.5 c-3.2,0.1-6.6,1.2-8.8,3.7c-0.7,0.8-1.3,1.7-2,2.5c-1.1,1.9-1.7,4.1-1.7,6.3c-2.3,18.6-4.5,37.1-6.8,55.7c-0.4,3,1.7,6.8,3.7,8.8 c2.2,2.2,5.7,3.8,8.8,3.7c3.2-0.1,6.6-1.2,8.8-3.7c0.7-0.8,1.3-1.7,2-2.5c1.1-1.9,1.7-4.1,1.7-6.3c2.3-18.6,4.5-37.1,6.8-55.7 c0.4-3-1.7-6.8-3.7-8.8C202.4,55,198.9,53.4,195.8,53.5z" fill="url(#c)"/><linearGradient gradientUnits="userSpaceOnUse" id="d" x1="368.496" x2="149.109" xlink:actuate="onLoad" xlink:show="other" xlink:type="simple" y1="454.192" y2="268.686"><stop offset="0.071" stop-color="#605dc8"/><stop offset="1" stop-color="#605dc8"/></linearGradient><path d="M324.9,297.1c-3.3-10.7-8.2-21.1-15-30 c-3.3-4.4-6.8-8.5-10.8-12.3c-4-3.7-8.3-7.1-12.8-10.2c-8.3-5.7-17.5-10-27-13.1c-9.6-3.2-19.8-4.9-29.9-5.5 c-20.7-1.2-41.1,3.9-59.4,13.4c-9.4,4.9-18,11.1-26,18c-8.1,7-15.1,15-21.5,23.5c-5.8,7.7-10.8,16.1-15,24.8 c-5.6,11.8-10.5,24.4-10.9,37.7c-0.1,3.9,0.3,7.9,1.1,11.7c0.6,3.2,1.9,6.2,3.2,9.2c1,2.2,2.2,4.3,3.7,6.2c2,2.6,3.9,5,6.5,7 c1.6,1.3,3.2,2.6,5,3.6c1.9,1.1,4,1.9,6,2.7c3.1,1.2,6.5,1.6,9.7,1.7c6.9,0.2,13.9-2.2,19.7-5.7c10.8-6.6,18.7-16.9,26.2-26.9 c6.6-8.9,12.7-18.2,18-27.9c11.2-20.4,19.8-42.6,24.6-65.3c0.6-2.9,1.1-5.8,1.6-8.7c4.6-0.1,9.3,0.2,13.9,0.7 c7.9,1.2,15.6,3.3,22.9,6.2c6.3,2.8,12.3,6.3,17.9,10.4c4.6,3.7,8.8,7.9,12.6,12.5c3.6,4.8,6.6,10,9,15.5c2.9,7.2,4.9,14.8,6,22.4 c1.3,10.6,1.1,21.3-0.2,31.9c-2.5,16.7-7.6,32.9-13.7,48.7c-1.7,4.3-3.4,8.6-5.2,12.8c-2.1,4.9-4.2,9.8-6.3,14.7 c-0.9,1.4-1.4,3-1.5,4.6c-0.4,1.7-0.3,3.3,0.2,5c0.8,2.9,3,6,5.7,7.5c2.9,1.5,6.4,2.3,9.6,1.3c2.9-0.9,6.2-2.8,7.5-5.7 c10.1-23.1,20.4-46.4,25.8-71.1c2.6-11.9,4.1-24.1,4-36.3C329.9,320.3,328.4,308.3,324.9,297.1z M184.1,291.7 c-6.1,14.1-13.5,27.7-22.1,40.4c-2.4,3.5-4.9,6.9-7.4,10.2c-4.1,5.2-8.3,10.2-13.4,14.4c-1.6,1.1-3.2,2.1-5,3 c-0.9,0.3-1.8,0.6-2.8,0.8c-0.7,0-1.4,0-2,0c-0.6-0.1-1.2-0.3-1.7-0.5c-0.7-0.4-1.4-0.8-2-1.2c-0.8-0.7-1.6-1.5-2.3-2.4 c-0.8-1.2-1.5-2.4-2.1-3.7c-0.5-1.5-0.9-2.9-1.2-4.5c-0.2-2.7-0.2-5.3,0.1-8c1-6,2.9-11.7,5.2-17.4c4.5-10.5,10.3-20.4,17.2-29.6 c6.4-8.1,13.7-15.5,21.8-21.9c7.2-5.4,14.9-10,23.2-13.6c2.1-0.8,4.2-1.6,6.4-2.3C193,267.9,188.9,280,184.1,291.7z" fill="url(#d)"/></svg>