<?xml version="1.0" encoding="UTF-8" standalone="no"?><svg xmlns="http://www.w3.org/2000/svg" xmlns:xlink="http://www.w3.org/1999/xlink" fill="#000000" height="449.6" preserveAspectRatio="xMidYMid meet" version="1" viewBox="-0.7 -1.0 467.0 449.6" width="467" zoomAndPan="magnify"><g id="change1_1"><path d="M149.2,288.4C149.8,287.7,150.9,286.3,149.2,288.4L149.2,288.4z M347.8,315.8 C346.4,318.7,347.4,316.6,347.8,315.8L347.8,315.8z M465.3,400c-2,12-9.9,22-17.2,31.2c-4.3,5.5-13.2,4.2-17.7,0 c-2.3-2.1-3.7-5.8-3.7-8.8c0-3.6,1.5-6.1,3.7-8.8c0.8-1,1.5-2,2.3-2.9c-2.4,3,0.2-0.3,0.8-1.1c1.4-1.9,2.7-3.9,3.9-5.9 c0.6-1.1,1.2-2.1,1.8-3.2c0.1-0.2,0.2-0.4,0.3-0.6c0,0,0-0.1,0-0.1c0.6-1.7,1.1-3.4,1.5-5.2c0-0.7,0-1.4,0-2.1 c-0.3-1.2-0.8-2.4-1.1-3.6c-0.1-0.2-0.2-0.3-0.3-0.5c-0.2-0.4-0.5-0.8-0.8-1.2c0,0,0-0.1,0-0.1c0,0,0,0,0,0c0-0.1-0.3-0.4-0.7-0.6 c-0.1-0.1-0.2-0.1-0.2-0.2c0,0-0.1-0.1-0.1-0.1c0,0-0.1,0-0.1,0c0.1,0.1,0.1,0.1,0.2,0.2c-0.1-0.1-0.3-0.1-0.4-0.2c0,0,0,0,0,0 c-0.1,0-0.2,0-0.3,0c-0.3,0.1-0.5,0.1-0.8,0.2c-0.9,0.5-1.7,1.1-2.6,1.6c-0.1,0.1-0.2,0.2-0.4,0.3c-0.6,0.5-1.2,1.1-1.8,1.7 c-1,1-1.9,2-2.8,3.1c-4.8,5.4-9.4,11-14.1,16.5c-9.8,11.4-19.5,22.9-29.3,34.3c-4.1,4.7-11.8,4.5-16.4,1c-2.2-1.7-3.6-3.9-4.5-6.5 c-0.9-2.7-0.5-7.3,1.3-9.6c4.8-6.6,9.3-13.5,13.5-20.6c3.6-6.2,7-12.5,10.1-19c1.5-3.1,2.7-6.6,4.3-9.6c-0.3,0.6-0.9,2.1-0.3,0.7 c0.1-0.2,0.2-0.5,0.3-0.7c0,0,0-0.1,0.1-0.1c0,0,0,0.1-0.1,0.1c0.1-0.2,0.2-0.4,0.3-0.7c0.3-0.7,0.6-1.4,0.9-2.1 c0.7-1.7,1.3-3.3,1.9-5c4.6-12.3,8.8-25.2,10.8-38.2c0.3-2.6,0.4-5.2,0.2-7.7c-0.2-1-0.4-2-0.7-3c-0.2-0.3-0.3-0.6-0.5-0.9 c-0.1-0.1-0.1-0.1-0.2-0.2c0,0,0,0,0,0c-0.2-0.1-0.4-0.1-0.6-0.1c-0.4,0-0.8,0-1.1,0c-1,0.2-2,0.5-3,0.8c-0.5,0.3-1.4,0.6-1.8,0.8 c-2.8,1.4-5.5,3.2-8.1,4.9c-2.3,1.6-4.6,3.2-6.9,4.8c-1.1,0.8-2.3,1.7-3.4,2.5c-0.1,0.1-0.1,0.1-0.2,0.2c0,0,0,0,0,0 c-0.5,0.4-1.1,0.9-1.6,1.3c-8,6.4-15.6,13.4-22.7,20.8c-0.7,0.8-1.4,1.6-2.2,2.3c-13.3,26.5-28.8,52-46.3,76 c-3.7,5.1-9.5,7.7-15.6,5.1c-2.6-1.1-4.5-2.8-6-5.1c-1.6-2.5-2.3-6.9-1.3-9.6c8.3-22.8,19.7-44.3,34.4-63.6 c4.4-5.8,9-11.4,13.9-16.8c4.1-8.3,8-16.7,11.7-25.2c0.7-1.7,1.4-3.4,2.2-5c0,0.1-0.1,0.1-0.1,0.2c0,0,0-0.1,0-0.1 c0.3-0.7,0.6-1.4,0.9-2.2c1.1-2.7,2.2-5.3,3.2-8c2.3-5.8,4.5-11.7,6.6-17.6c2.1-5.9,4.1-11.9,5.9-17.9c1.5-4.7,2.9-9.3,3.7-14.1 c0.3-2.5,0.3-5,0.1-7.5c-0.1-0.3-0.1-0.7-0.2-1c0,0,0,0,0,0c-0.2-0.4-0.4-0.8-0.7-1.2c-0.2-0.3-0.3-0.5-0.5-0.8c0,0-0.1-0.1-0.1-0.1 c-0.4-0.2-0.8-0.5-1.2-0.7c-0.3-0.1-0.7-0.2-1-0.3c-0.7,0-1.5,0-2.2,0c-1.6,0.3-3.2,0.8-4.8,1.4c0,0,0,0,0,0 c-0.2,0.1-0.4,0.2-0.5,0.2c-1,0.5-1.9,0.9-2.8,1.5c-2,1.1-3.9,2.3-5.7,3.6c-0.6,0.4-1.2,0.8-1.7,1.2c0,0-0.1,0.1-0.2,0.1 c-0.1,0.1-0.2,0.2-0.3,0.3c-0.4,0.3-0.7,0.6-1.1,0.9c-7.5,6.2-14.8,12.4-22,18.9c-19.1,16.9-37.3,34.8-54.7,53.4 c-9.1,13.2-18.5,26.2-28.2,39c-17,22.3-34.8,43.8-53.6,64.6c-4.2,4.6-11.7,4.6-16.4,1c-4.7-3.6-6.7-10.9-3.2-16.1 c2.3-3.4,4.6-6.9,6.9-10.3c19.6-28.6,41.1-56.1,64.2-82c3.5-4,7.2-7.9,10.8-11.9c9.8-14.4,19.3-29.1,28.3-44.1 c10.2-16.9,19.8-34.1,28.9-51.6c4.5-8.6,8.9-17.3,13.1-26.1c0.5-1.1,1-2.1,1.5-3.2c0.1-0.1,0.1-0.2,0.2-0.4c0.7-1.9,1.4-3.7,2.1-5.6 c1.1-3.3,2-6.7,2.6-10.2c0.2-2.3,0.2-4.5,0.1-6.8c-0.1-0.7-0.3-1.4-0.5-2.2c-0.1-0.3-0.2-0.7-0.3-1c-0.4-0.8-0.9-1.6-1.4-2.4 c-0.3-0.4-0.6-0.7-1-1.1c-0.3-0.3-0.6-0.5-0.9-0.8c-0.4-0.2-0.9-0.5-1.3-0.7c0.7,0.3,0.2-0.2-0.7-0.5c-0.1,0-0.3-0.1-0.4-0.1 c-0.2-0.1-0.3-0.2-0.5-0.3c0.2,0.1,0.3,0.2,0.4,0.3c-0.4-0.1-0.8-0.3-1.2-0.4c-0.5-0.1-1-0.2-1.5-0.3c-2-0.2-4-0.1-6.1,0.1 c-1.8,0.3-3.7,0.8-5.5,1.3c-1.2,0.4-2.5,0.8-3.7,1.2c-0.8,0.3-3.5,1.5-2.8,1.1c-4.1,2-8.1,4-12,6.4c-3.3,2.1-6.6,4.3-9.9,6.5 c-2.3,5.3-4.5,10.6-6.8,15.9c-10.2,23.6-21.4,46.7-33.8,69.2c-12.3,22.3-25.8,43.9-40.9,64.5c-15.4,21-32.2,41-50.9,59.2 c-4.5,4.4-9.1,8.7-13.9,12.9c-2.6,2.3-5.2,4.6-8.3,6.1c-3.9,1.9-7.3,2.8-11.6,3.2c-13.4,1.2-25.8-8.3-29.9-20.7 c-2.3-6.9-0.9-14.1,0.9-20.9c2-7.4,4.8-14.6,7.8-21.7c5.6-12.8,12.8-24.8,20.6-36.3c15-22.1,31.7-43.1,49.6-62.9 c17.4-19.2,36.1-37.1,56-53.7c10.6-8.8,21.5-17.3,32.6-25.3c2.8-2,5.6-4,8.4-6c1.6-4,3.2-8,4.8-12.1c8.1-20.7,17-41.8,20.3-63.9 c0.7-6.3,0.9-12.7,0.2-19.1c-0.4-2.1-0.8-4.2-1.4-6.3c-0.4-1.3-0.8-2.6-1.3-3.9c0.1,0.2,0.2,0.4,0.3,0.6c-0.1-0.3-0.3-0.6-0.4-0.9 c-0.1-0.2-0.2-0.4-0.3-0.6c0-0.1-0.1-0.1-0.1-0.2c-1.1-2.4-2.5-4.6-4-6.8c-0.4-0.5-0.9-1-1.3-1.5c-0.8-0.9-1.7-1.8-2.7-2.7 c-0.5-0.4-0.9-0.8-1.4-1.2c-0.1-0.1-0.2-0.2-0.4-0.4c-0.4-0.3-0.8-0.6-0.9-0.7c-0.5-0.3-1-0.7-1.5-1c-1.1-0.7-2.3-1.4-3.4-2 c-0.7-0.4-2.8-1.2-2.9-1.3c-3.9-1.4-7.8-2.4-11.9-3.1c-7.9-0.9-15.9-0.6-23.8,0.3c-9.6,1.4-19.1,3.8-28.4,6.7 c-4.9,1.5-9.8,3.1-14.6,4.9c-2.4,0.9-4.7,1.8-7,2.7c-1.2,0.5-2.3,0.9-3.5,1.4c-0.5,0.2-0.9,0.4-1.4,0.6 c-16.6,7.2-32.5,16.1-47.4,26.3c-3.8,2.6-7.5,5.3-11.2,8c-0.1,0.1-0.2,0.2-0.3,0.2c-0.2,0.2-0.5,0.4-0.7,0.5 c-0.2,0.1-0.4,0.3-0.6,0.4c0.1-0.1,0.3-0.2,0.4-0.3c-0.8,0.7-1.7,1.3-2.5,2c-1.6,1.3-3.2,2.6-4.8,3.9c-7,5.8-13.6,12-20,18.4 c-6.5,6.5-12.6,13.3-18.4,20.4c-1.4,1.7-2.7,3.4-4,5.1c0.1-0.1,0.2-0.3,0.3-0.4c-0.2,0.2-0.4,0.5-0.5,0.7c-0.1,0.1-0.1,0.2-0.2,0.3 c-0.1,0.2-0.3,0.4-0.4,0.6c-0.7,0.9-1.3,1.7-2,2.6c-2.7,3.6-5.2,7.3-7.7,11c-5,7.5-9.7,15.3-14,23.3c-2.2,4-4.2,8.1-6.2,12.3 c-1,2.2-2,4.4-3,6.6c-0.3,0.7-0.6,1.4-0.9,2.1c-0.2,0.5-0.4,1-0.6,1.5c-1.3,3.2-2.8,5.6-5.7,7.5c-2.8,1.8-6.4,2-9.6,1.3 c-3-0.7-6-3.2-7.5-5.7c-1.5-2.5-2.4-6.8-1.3-9.6c4.5-11,9.5-21.8,15.2-32.2c11.4-20.6,25.5-39.7,41.4-57 C73.1,74.6,91.2,59.2,110.7,46c19.5-13.2,40.6-23.9,62.7-32.2C195.2,5.7,219-1,242.5,0.1c12.5,0.6,25.2,3.3,35.9,9.9 c11.6,7.1,19.9,17.8,24.7,30.5c4.1,11,4.8,23.5,3.5,35.1c-1.3,12.5-4.3,24.7-8.2,36.6c-2.2,6.6-4.6,13.3-7,19.8 c7.9-3.1,16.3-5.2,24.6-4.6c6.7,0.4,13.6,2.1,19.2,6.1c6.6,4.7,11.2,10.8,13.8,18.5c4.1,12.1,1.2,26.1-3.3,37.6 c-5,12.9-11.7,25.3-18.1,37.6c-2.6,5.1-5.3,10.1-8.1,15.2c3.2-2.7,6.4-5.4,9.7-8c7.3-5.8,15.2-11.1,24.3-13.7 c10.5-3,21.2-1.3,29.6,5.8c7,5.9,10,15,10.3,23.9c0.3,7.8-1.5,15.7-3.8,23.1c-2.5,8.1-5.2,16.2-8,24.2c-1.1,3.2-2.3,6.3-3.5,9.5 c5.6-3.8,11.4-7.1,17.7-9.1c7.6-2.4,15.8-2,22.9,1.8c6,3.3,10,8.9,12.3,15.2c3.7,10,1.8,21.4-0.5,31.5c-1.3,5.8-2.9,11.6-4.6,17.2 c3.4-1.6,6.9-2.5,10.9-2.7c6.8-0.3,12.9,2.6,18,6.8c4.5,3.7,7.4,8.9,9.4,14.3C466.3,387.9,466.3,394,465.3,400z M103.8,371.4 C103.9,371.4,103.9,371.4,103.8,371.4C103.9,371.4,103.9,371.4,103.8,371.4z M105.1,373.7c-0.1-0.1-0.1-0.2-0.2-0.3 c0,0,0-0.1-0.1-0.1C104.6,373.2,104.8,373.4,105.1,373.7z M106.4,374.7C106.4,374.7,106.3,374.7,106.4,374.7c0,0.1,0.1,0.1,0.2,0.2 C106.5,374.8,106.4,374.8,106.4,374.7z M235.8,199.3c-0.4,0.4-0.9,0.7-1.3,1.1c-8.1,6.7-15.9,13.6-23.6,20.7 c-15.3,14.2-29.9,29.3-43.5,45.1c-3.4,4-6.8,8-10.1,12c-1.7,2-3.3,4.1-4.9,6.1c-0.8,1.1-1.7,2.2-2.5,3.2c-0.3,0.4-0.6,0.8-0.9,1.2 c0.1-0.1,0.2-0.3,0.3-0.4c-0.1,0.1-0.1,0.1-0.2,0.2c-6.4,8.3-12.5,16.8-18.4,25.5c-6.3,9.3-12.2,19-17.1,29.1 c-0.6,1.3-1.3,2.7-1.9,4c-0.3,0.6-0.5,1.2-0.8,1.8c-0.2,0.3-1.4,2.5-0.3,0.7c1.1-1.7-0.1,0.3-0.3,0.7c-0.3,0.7-0.6,1.5-0.9,2.2 c-0.5,1.2-0.9,2.5-1.4,3.7c-1.5,4.4-3,9-3.8,13.6c0,0.5,0,1,0,1.5c0.1,0.3,0.2,0.6,0.3,1c0.1,0.2,0.3,0.5,0.5,0.8 c0.1,0.1,0.2,0.3,0.4,0.4c-0.1-0.1-0.2-0.1-0.2-0.2c0.1,0.1,0.2,0.2,0.2,0.3c0.1,0.1,0.2,0.1,0.3,0.2c0,0,0.1,0,0.1,0.1 c0.2,0.2,0.3,0.3,0.5,0.5c0,0,0,0,0,0c-0.2-0.1-0.3-0.3-0.4-0.4c0.5,0.2,1.1,0.5,1.5,0.8c0.2,0.1,0.4,0.1,0.6,0.2c0.4,0,0.7,0,1.1,0 c0.4-0.1,0.8-0.2,1.1-0.3c0.3-0.2,0.7-0.4,1-0.6c0,0,0.1-0.1,0.1-0.1c0.5-0.5,1.1-1,1.6-1.4c1.3-1.1,2.5-2.3,3.8-3.4 c5-4.6,9.9-9.3,14.7-14.1c9.4-9.5,18.3-19.4,26.8-29.7c2-2.4,4-4.9,6-7.4c0.7-0.9,1.5-1.9,2.2-2.8c-0.1,0.1-0.1,0.1-0.2,0.2 c0.4-0.6,0.9-1.2,1.3-1.7c3.7-4.8,7.3-9.7,10.8-14.7c6.9-9.8,13.5-19.8,19.8-30c12.8-20.7,24.4-42.3,35-64.2 C234.1,203,235,201.2,235.8,199.3z M248.4,189.3c-0.1,0.1-0.2,0.2-0.3,0.2C247.4,190.1,246,191.3,248.4,189.3z M366.1,244.6 c0.1,0.1,0.2,0.1,0.3,0.2C366.3,244.7,366.2,244.7,366.1,244.6C366.1,244.6,366.1,244.6,366.1,244.6z M367.9,247.1 c-0.1-0.3-0.2-0.6-0.2-0.8c0,0,0,0,0,0c-0.1,0-0.1-0.1-0.2-0.3C367.5,246.3,367.8,246.7,367.9,247.1z M368.5,250.4 c0,0.1,0,0.1,0,0.2C368.5,250.6,368.5,250.5,368.5,250.4z M407.2,321.9C407.2,322,407.2,322,407.2,321.9c0.3,0.3,0.5,0.4,0.5,0.3 C407.7,322.2,407.4,322.1,407.2,321.9z M437.5,385.8c-0.1-0.1-0.1-0.1-0.2-0.2c0,0,0,0,0,0C437.3,385.7,437.4,385.8,437.5,385.8 C437.4,385.8,437.4,385.8,437.5,385.8z M437.1,385.5c0.1,0.1,0.1,0.1,0.2,0.2c0,0,0,0,0,0C437.2,385.6,437.1,385.5,437.1,385.5z M437.8,386.1C437.7,386,437.7,386,437.8,386.1c-0.1-0.1-0.1-0.1-0.1-0.1C437.7,386,437.7,386,437.8,386.1z M438.3,386.3 c0,0-0.2-0.1-0.5-0.2C438.1,386.2,438.3,386.3,438.3,386.3z M439.8,388.2C439.8,388.2,439.8,388.2,439.8,388.2 C439.8,388.2,439.8,388.2,439.8,388.2C439.8,388.2,439.8,388.2,439.8,388.2c0-0.2-0.3-0.5-0.6-0.9 C439.5,387.8,439.8,388.2,439.8,388.2z M58.9,128.4C58.9,128.4,58.9,128.4,58.9,128.4c-0.3,0.4-0.3,0.4,0.9-1.1 c-0.1,0.1-0.2,0.2-0.2,0.3C59.4,127.8,59.2,128.1,58.9,128.4z M105.6,374.1C105.7,374.1,105.7,374.1,105.6,374.1 c0.1,0.1,0.1,0.1,0.2,0.1c-0.2-0.2-0.4-0.4-0.5-0.5C105.4,373.9,105.6,374,105.6,374.1z M109.7,77.4 C109.7,77.4,109.6,77.4,109.7,77.4c1.6-1.2,1.4-1,0.8-0.6C110.3,77,110,77.2,109.7,77.4C109.7,77.4,109.7,77.4,109.7,77.4z M319.1,153.2c0.5,0.3,0.9,0.5,1.1,0.6C319.9,153.6,319.5,153.4,319.1,153.2C319.2,153.2,319.1,153.2,319.1,153.2z M393.8,379.3 C393.8,379.3,393.8,379.3,393.8,379.3C393.8,379.3,393.8,379.3,393.8,379.3C393.8,379.3,393.8,379.3,393.8,379.3z M438,386.3 c-0.1,0-0.1-0.1-0.2-0.1c0.7,0.7,1,0.8,1,0.8C438.6,386.7,438.3,386.5,438,386.3C438.1,386.3,438,386.3,438,386.3z M166.4,315.2 C166.4,315.2,166.4,315.2,166.4,315.2C166.9,314.6,168.4,312.6,166.4,315.2z M278.9,47c-0.1-0.2-0.2-0.4-0.3-0.6 c-0.3-0.7-0.6-1.1,0.4,0.9c0,0,0-0.1,0-0.1C279,47.1,279,47.1,278.9,47z" fill="#d84839"/></g></svg>