<?xml version="1.0" encoding="UTF-8" standalone="no"?><svg xmlns="http://www.w3.org/2000/svg" xmlns:xlink="http://www.w3.org/1999/xlink" fill="#000000" height="449.5" preserveAspectRatio="xMidYMid meet" version="1" viewBox="-0.4 -1.3 420.0 449.5" width="420" zoomAndPan="magnify"><g id="change1_1"><path d="M409.8,141.1c-5.5-8.4-12.5-16.2-19.4-23.5c-26.7-28.3-60.1-49.8-96.5-63.3c-8.5-3.1-17.1-5.8-25.9-7.9 c0.5-2.4,1.2-4.8,2.1-7.2c0.6-1.3,1.3-2.7,2.1-3.9c0.4-0.7,0.9-1.4,1.4-2c0.3-0.3,0.5-0.7,0.8-1c0.7-0.8,1.4-1.5,2.2-2.2 c0.3-0.2,0.5-0.5,0.8-0.7c1.4-1,2.9-1.8,4.5-2.6c2-0.7,4.1-1.3,6.2-1.7c2.2-0.2,4.4-0.2,6.5,0c0.5,0.1,1,0.2,1.5,0.3 c6.4,1.5,13.8-2,15.4-8.7c1.5-6.4-1.9-13.8-8.7-15.4c-11.5-2.6-23.3-1.2-33.9,4.1c-9.1,4.6-16.6,13-20.8,22.3c-2,4.6-3.5,9.3-4.4,14 c-1.9-0.3-3.7-0.5-5.6-0.7c-16.8-1.9-34.9-1.1-51,4.4c-9.1,3.1-17.3,7.5-24.6,13.7c-7.6,6.4-12.9,14.8-16.4,24 c-8.2,21-2.3,44.5,6.2,64.4c0.6,1.3,1.1,2.6,1.7,3.9c-8.9,1.7-17.6,4.3-25.9,8.2c-16.7,7.8-29.6,22-35.1,39.7 c-2.8,9.1-3.5,18.4-2.5,27.7c-5.7-0.4-11.4-0.4-17.1,0c-21,1.6-42.1,8.9-56.1,25.3c-7,8.2-12.4,17.8-15,28.3 c-2.7,10.9-2.6,21.8-0.9,32.9c3,19.6,12.6,37.9,24.6,53.5c23.9,31.3,56,54.8,92.8,68.8c17.3,6.6,35.5,10.5,53.9,12.1 c3,0.3,6.8-1.6,8.8-3.7c2.2-2.2,3.8-5.7,3.7-8.8c-0.3-7.3-5.5-11.9-12.5-12.5c-2.2-0.2-4.3-0.4-6.4-0.7 c-15.8-2.3-31.2-6.5-45.9-12.6c-7.3-3.2-14.4-6.7-21.2-10.7c-3.7-2.2-7.4-4.5-11-6.9c-1.6-1.1-3.2-2.2-4.8-3.4 c-0.9-0.6-1.8-1.3-2.6-1.9c-0.3-0.3-0.7-0.5-1-0.8c0,0-0.1,0-0.1-0.1c-6.5-5.2-12.8-10.7-18.7-16.6c-3-3-5.8-6.1-8.6-9.3 c-1.3-1.6-2.7-3.1-4-4.8c-0.6-0.8-1.2-1.5-1.8-2.3c2.7,3.3-0.2-0.3-0.8-1.1c-5.6-7.6-10.5-15.6-14.3-24.2 c-2.6-6.6-4.6-13.5-5.7-20.5c-0.5-5-0.6-10-0.1-15.1c0.6-3.8,1.6-7.5,3-11.1c1.4-3,3-5.9,4.9-8.7c0.6-0.8,2.7-3.4,0.1-0.2 c0.5-0.6,1-1.3,1.6-1.9c1.2-1.4,2.5-2.8,3.8-4c1.1-1.1,2.3-2.1,3.5-3.1c0.2-0.1,0.4-0.3,0.5-0.4c0.7-0.5,1.3-0.9,2-1.4 c2.6-1.7,5.4-3.2,8.2-4.5c5.1-2,10.4-3.3,15.8-4.2c9.3-1.1,18.6-0.9,27.9,0.1c0.9,2.4,1.9,4.7,3,7c7.9,17.1,21,30.8,33.4,44.7 c10,11.2,20.2,22.2,31.1,32.5c21.9,20.7,46.7,37.6,73.9,50.6c8.8,4.2,17.7,8,26.7,11.7c8.6,3.5,17.5,7.5,26.6,9.5 c10.5,2.2,22.7,2.4,31.9-4c5.8-4,9.8-9.3,12.1-16c2-5.9,1.8-12.3,0.7-18.4c-2.1-11.3-10-20.7-18-28.5c-7-6.9-14.4-13.5-21.8-19.9 c-15.6-13.4-31.9-25.9-49.1-37.1c-33.2-21.8-69.9-39.2-108.5-49.2c-7.5-2-15.1-3.7-22.8-5c-0.2-1.2-0.5-2.4-0.6-3.5 c-0.5-4.5-0.5-9-0.1-13.6c0.6-3.5,1.5-7,2.8-10.3c1.3-2.9,2.9-5.6,4.7-8.2c0,0,0.1-0.1,0.1-0.1c0.5-0.6,1-1.2,1.5-1.8 c1.1-1.3,2.3-2.5,3.6-3.6c0.6-0.5,1.2-1.1,1.8-1.6c0,0,0,0,0.1-0.1c1.3-0.9,2.6-1.8,4-2.7c2.5-1.6,5.1-2.9,7.8-4.1 c6.8-2.7,13.8-4.5,21-5.6c1.2-0.2,2.5-0.3,3.8-0.4c4.4,7.1,9.2,14,14.2,20.7c11.5,15.3,24.3,29.6,38.6,42.4 c14.2,12.7,29.7,24.2,46.2,34c7.9,4.7,16,8.9,24.3,12.8c8.9,4.1,18,8.2,27.4,11c9.4,2.8,20.6,4.3,30.1,0.9c5.4-2,10.5-5,14.1-9.5 c4.3-5.5,6.6-11.3,7.2-18.3c0.9-10.3-3.7-21.1-9.2-29.5c-5.6-8.5-12.7-15.8-20-22.7c-28.8-27.3-64.3-47.5-102.4-58.4 c-18.1-5.2-37.3-8.6-56.2-8.9c-2.3-4.3-4.5-8.7-6.4-13.2c-3-7.5-5.4-15.3-6.7-23.3c-0.5-4.3-0.5-8.6-0.1-13c0.6-3.3,1.4-6.6,2.6-9.7 c1.2-2.6,2.6-5,4.3-7.3c0.4-0.5,0.9-1,1.3-1.5c1-1.1,2.1-2.2,3.3-3.3c0.5-0.5,1-0.9,1.6-1.4c1.2-0.8,2.3-1.6,3.5-2.3 c2.1-1.3,4.4-2.5,6.6-3.5c5.8-2.3,11.8-3.8,17.9-4.7c10.3-1.2,20.7-1,30.9,0.2c1.4,0.2,2.8,0.4,4.3,0.7c1.4,7.5,4,14.9,7.6,21.9 c9.4,18.3,25.2,32.7,41.1,45.4c16.9,13.4,35,25.3,54.4,34.9c4.6,2.3,9.4,4.5,14.1,6.6c5.2,2.2,10.4,4.6,15.8,6.4 c10.8,3.4,23.3,3.6,32.2-4.3C419.6,167.9,417,152.1,409.8,141.1z M309.2,384.1c0,0-0.1,0.1-0.1,0.1 C309.1,384.2,309.2,384.1,309.2,384.1z M174.7,273.9c20.9,8.9,40.9,19.8,59.9,32.3c4.9,3.2,9.7,6.5,14.5,9.9c2.1,1.5,4.2,3,6.3,4.6 c1.1,0.8,2.3,1.7,3.4,2.5c0.6,0.4,1.1,0.9,1.7,1.3c0.1,0.1,0.3,0.2,0.4,0.3c9,7,17.8,14.4,26.3,22c4.9,4.4,9.7,8.8,14.4,13.5 c1.2,1.2,2.4,2.4,3.5,3.6c0.5,0.5,1,1.1,1.4,1.6c0.2,0.2,0.3,0.4,0.5,0.6c1.3,2.3,2.9,4.4,4.1,6.7c0.4,1.2,0.7,2.3,1,3.5 c0.1,1,0.1,2.1,0,3.1c-0.1,0.7-0.3,1.3-0.5,2c-0.2,0.4-0.4,0.7-0.6,1.1c-0.2,0.2-0.4,0.5-0.6,0.7c-0.1,0.1-0.2,0.1-0.3,0.2 c-0.4,0.2-0.8,0.5-1.2,0.7c-0.8,0.3-1.7,0.5-2.6,0.7c-2,0.1-4,0.1-6-0.1c-5.8-1-11.3-3.1-16.8-5.2c-5.9-2.2-11.7-4.6-17.5-7 c-12.4-5.3-24.5-11.1-36.2-17.8c-5.4-3.1-10.6-6.3-15.7-9.8c-2.5-1.7-5-3.4-7.4-5.2c-1.1-0.8-2.3-1.7-3.4-2.5 c-0.5-0.3-0.9-0.7-1.4-1c0,0,0,0,0,0c-19.7-15.5-36.9-33.8-53.5-52.5c-5.4-6.1-10.9-12-16-18.4c-0.3-0.3-0.5-0.7-0.8-1 c-0.6-0.9-1.3-1.8-1.9-2.7c-0.8-1.1-1.5-2.3-2.2-3.4C143.6,262.2,159.4,267.5,174.7,273.9z M130.2,187.2c0.3-0.2,0.6-0.5,0.6-0.5 C130.8,186.8,130.6,187,130.2,187.2z M255.2,191c14,6,27.5,13.4,40.1,22c3.3,2.2,6.5,4.5,9.6,6.9c0,0,0.1,0.1,0.1,0.1c0,0,0,0,0,0 c0.7,0.6,1.4,1.1,2.1,1.7c1.6,1.3,3.2,2.6,4.7,3.9c6,5.1,11.8,10.5,17.3,16.2c1.5,1.5,2.9,3.1,4.3,4.7c0.6,0.7,1.2,1.4,1.8,2.2 c0.3,0.3,0.5,0.7,0.8,1c-0.1-0.1-0.2-0.3-0.3-0.4c2.3,3.1,4.3,6.5,5.9,10c0.7,1.9,1.3,3.9,1.7,6c0.1,0.9,0.1,1.8,0,2.7 c-0.1,0.5-0.3,1-0.4,1.5c-0.2,0.4-0.5,0.8-0.7,1.2c-0.2,0.3-0.5,0.5-0.7,0.8c-0.1,0.1-0.2,0.2-0.3,0.3c-0.4,0.3-0.9,0.5-1.3,0.8 c-0.9,0.3-1.8,0.5-2.7,0.7c-2.1,0.1-4.1,0.1-6.2-0.1c-7.3-1.2-14.3-3.9-21.2-6.8c-11.7-5-23-10.8-33.9-17.3 c-5.5-3.3-10.9-6.8-16.1-10.5c-2.7-1.9-5.3-3.8-7.9-5.8c-0.1-0.1-0.5-0.4-0.9-0.7c-0.3-0.2-0.6-0.5-0.8-0.6c-1.3-1-2.6-2-3.8-3.1 c-10-8.2-19.5-17.1-28.3-26.6c-4.4-4.7-8.6-9.6-12.6-14.6c-0.8-1.1-1.7-2.1-2.5-3.2c-0.1-0.1-0.1-0.1-0.2-0.2 c-0.6-0.8-1.2-1.6-1.8-2.3c-1.5-2-3-4.1-4.4-6.1c0.9,0.1,1.8,0.2,2.7,0.3C218.7,178.5,237.4,183.6,255.2,191z M391,160.4 C391,160.4,391,160.4,391,160.4C391,160.4,391,160.4,391,160.4z M391.7,159.1C391.7,159.1,391.7,159.1,391.7,159.1 c0.1-0.2,0.2-0.5,0.3-0.7C392,158.5,391.9,158.8,391.7,159.1z M388.5,159.1c-4.5-0.8-8.7-2.5-13-4.2c-17.3-7.4-34-16.4-49.6-26.9 c-3.9-2.6-7.7-5.3-11.5-8.1c-0.9-0.7-1.8-1.3-2.7-2c0.1,0.1,0.3,0.2,0.5,0.4c-0.2-0.2-0.5-0.4-0.7-0.6c0,0,0,0,0,0 c-0.3-0.3-0.9-0.7-0.8-0.6c-1.8-1.4-3.6-2.9-5.4-4.3c-7-5.8-13.8-11.8-19.9-18.6c-1.6-1.8-3.2-3.7-4.8-5.6c0,0-0.1-0.1-0.1-0.2 c-0.3-0.4-0.8-1-0.9-1.1c-0.7-0.9-1.3-1.9-2-2.8c-2.4-3.6-4.5-7.3-6.3-11.2c8.1,2.4,16.1,5.2,24,8.4c15.2,6.6,29.8,14.6,43.4,24.1 c1.7,1.2,3.4,2.4,5.1,3.7c0.8,0.6,1.6,1.2,2.4,1.8c0.1,0.1,0.3,0.2,0.5,0.4c0.2,0.1,0.3,0.3,0.4,0.3c3.4,2.7,6.7,5.4,9.9,8.3 c6.3,5.5,12.3,11.4,18,17.6c3.3,3.6,6.5,7.3,9.5,11c0.6,0.8,1.2,1.5,1.8,2.3c0.4,0.5,0.7,1,1.1,1.5c1.2,1.7,2.2,3.4,3.1,5.3 c0.2,0.4,0.3,0.9,0.4,1.3C390.2,159.2,389.3,159.2,388.5,159.1z M310.7,117c0.1,0,0.3,0.3,1.1,0.8c-0.1-0.1-0.2-0.1-0.2-0.2 c-0.1-0.1-0.3-0.2-0.4-0.3C311,117.2,310.8,117.1,310.7,117z M335.8,249.1C335.8,249.2,335.8,249.2,335.8,249.1 C333.9,247,335.3,248.4,335.8,249.1z" fill="#00906d"/></g><g id="change2_1"><path d="M114,128.8c0.1,3.1-1.5,6.7-3.7,8.8c-2.3,2.3-5.6,3.6-8.8,3.7c-3.4,0.1-6.7,0.4-10.1,0.7 c-6.1,0.9-12,2.3-17.9,4.1c3.1,4.6,6.4,9.2,9.8,13.7c2,2.6,2,6.6,1.3,9.6c-0.7,3.2-3.1,5.7-5.7,7.5c-2.7,1.7-6.6,2.1-9.6,1.3 c-1.6-0.4-3-1.1-4.3-2.2c-1.4-0.9-2.4-2.1-3.2-3.5c-3.9-5.2-7.6-10.5-11.2-15.9c-3.3,2-6.6,4.2-9.7,6.5c-2.3,1.8-4.5,3.7-6.7,5.7 c-2.5,2.3-5.4,3.5-8.8,3.7c-3.3,0.1-6.5-1.5-8.8-3.7c-2.3-2.1-3.7-5.8-3.7-8.8c0-3.1,1.4-6.7,3.7-8.8c5.3-4.9,11.1-9.4,17.1-13.4 c1.3-0.8,2.6-1.7,3.9-2.5c-7.6-13.4-14.4-27.4-20.4-41.6c-1.3-3-0.2-6.9,1.3-9.6c1.5-2.9,4.4-4.8,7.5-5.7c3-1,7-0.3,9.6,1.3 c1.5,0.8,2.6,1.9,3.5,3.2c1.1,1.2,1.8,2.5,2.2,4.1c2.2,5,4.5,10,6.9,15c3.7,7.7,7.8,15.2,12.1,22.6c13.3-4.9,27.5-7.7,41.6-8.1 c3.3-0.1,6.4,1.5,8.8,3.7C112.7,122.2,113.8,125.6,114,128.8z" fill="#00906d"/></g><g id="change3_1"><path d="M55.7,45.6c-0.7,1-1.4,2-2.1,3c-1.9,2.8-4.3,4.7-7.5,5.7c-3.2,1-6.7,0.3-9.6-1.3c-2.7-1.4-4.9-4.6-5.7-7.5 C30,42.7,30.3,38.6,32,36C40,24.3,50,14.5,62,7c2.9-1.8,6.4-2,9.6-1.3c3.2,0.7,5.7,3.1,7.5,5.7c1.7,2.7,2.1,6.6,1.3,9.6 c-0.9,3.1-3,5.8-5.7,7.5c-2.1,1.3-4.2,2.7-6.2,4.2C63.8,36.7,59.5,40.9,55.7,45.6z M159.4,17.6c-1-3-2.9-5.9-5.7-7.5 c-2.8-1.5-6.5-2.5-9.6-1.3c-12.1,4.7-23.7,10.6-34.2,18.3c-10.5,7.6-20.1,16.2-28.3,26.2c-4.9,6-9.5,12.2-13.4,18.8 c-1.7,2.8-2.1,6.5-1.3,9.6c0.8,2.9,3,6,5.7,7.5c2.9,1.5,6.4,2.3,9.6,1.3c3.1-1,5.7-2.9,7.5-5.7c2.4-4,5.1-7.9,7.9-11.7 c6.7-8.5,14.4-16.1,22.9-22.9c8.6-6.5,18-12,27.9-16.3c0.8-0.3,1.6-0.6,2.3-0.9c3.1-1.2,5.7-2.8,7.5-5.7 C159.7,24.5,160.3,20.6,159.4,17.6z" fill="#00906d"/></g></svg>