<?xml version="1.0" encoding="UTF-8" standalone="no"?><svg xmlns="http://www.w3.org/2000/svg" xmlns:xlink="http://www.w3.org/1999/xlink" fill="#000000" height="969" preserveAspectRatio="xMidYMid meet" version="1" viewBox="605.4 507.3 789.2 969.0" width="789.2" zoomAndPan="magnify"><g><g id="change1_1"><path d="M 1242.699219 572.871094 C 1177.140625 507.308594 1070.839844 507.308594 1005.28125 572.871094 C 939.71875 638.441406 939.714844 744.730469 1005.28125 810.300781 C 1070.839844 875.859375 1177.140625 875.859375 1242.699219 810.300781 C 1308.261719 744.730469 1308.261719 638.429688 1242.699219 572.871094 Z M 605.375 668.808594 L 690.574219 668.808594 C 781.757812 668.808594 855.675781 742.730469 855.675781 833.910156 L 855.898438 1197.101562 L 770.703125 1197.101562 C 679.519531 1197.101562 605.597656 1123.179688 605.597656 1032 L 605.375 668.808594" fill="#ffffff"/></g><g id="change2_1"><path d="M 1394.621094 1476.300781 L 1394.621094 1391.101562 C 1394.621094 1299.921875 1320.699219 1226 1229.519531 1226 L 698.144531 1226 L 698.144531 1311.199219 C 698.144531 1402.378906 772.0625 1476.300781 863.246094 1476.300781 Z M 770.570312 1196.96875 C 679.386719 1196.96875 605.464844 1123.050781 605.464844 1031.859375 L 605.464844 946.671875 L 1136.839844 946.671875 C 1228.03125 946.671875 1301.949219 1020.589844 1301.949219 1111.769531 L 1301.949219 1196.96875 L 770.570312 1196.96875" fill="#ffffff"/></g></g></svg>