<?xml version="1.0" encoding="UTF-8" standalone="no"?><svg xmlns="http://www.w3.org/2000/svg" xmlns:xlink="http://www.w3.org/1999/xlink" fill="#000000" height="433.3" preserveAspectRatio="xMidYMid meet" version="1" viewBox="-0.4 -0.4 350.6 433.3" width="350.6" zoomAndPan="magnify"><g id="change1_1"><path d="M348.4,18.7c-0.2-0.6-0.5-1.2-0.9-1.8c-1.8-2.8-4.3-4.7-7.5-5.7c-14.3-4.5-28.9-7.4-43.8-9.3 c-13.9-1.8-27.9-2.3-41.8-1.5c-8.8,0.5-17.5,1.5-26.1,2.8c-2.9,0.4-6.1,3.3-7.5,5.7c-1.6,2.7-2.2,6.6-1.3,9.6c1,3,2.9,5.9,5.7,7.5 c1,0.4,2,0.8,3,1.3c2.2,0.6,4.4,0.6,6.6,0c0.9-0.1,1.9-0.3,2.8-0.4c15.4-2,30.9-2.4,46.4-1.2c4.1,0.3,8.2,0.7,12.4,1.3 c3.9,0.6,7.9,1.2,11.8,2c-27.7,11-53.5,25.9-77,44.4c-25.2,19.8-47.1,43.9-64.6,70.7c-6,9.2-11.6,18.8-16.5,28.7 c-1.8-1.1-3.7-2-5.6-2.9c-8.3-3.7-16.8-5.9-25.9-6c-8-0.1-16.2,1.4-23.7,4.4c-15.6,6.3-28.9,16.9-39.6,29.9 c-10.8,13.2-19.1,27.8-25.9,43.4c-7.1,16.3-12.6,33.1-16.2,50.5c-7.2,35-7.4,71.1-0.3,106.1c1.6,8,3.7,16,6.2,23.8 c2,6.2,8.8,10.9,15.4,8.7c6.3-2,10.8-8.7,8.7-15.4c-3.9-12.5-6.8-25.4-8.7-38.4c-2.6-20.8-2.6-41.8,0-62.5 c2.9-20.4,8.3-40.4,16.1-59.5c5.7-13.3,12.5-26.2,21.2-37.7c5.1-6.3,10.7-12.2,17-17.2c4.2-3.1,8.6-5.7,13.3-7.9 c3.4-1.3,6.9-2.3,10.5-2.9c3.4-0.3,6.8-0.4,10.3,0c3.3,0.6,6.6,1.5,9.8,2.7c2.4,1.1,4.8,2.5,7,3.9c-5.7,14.3-10.3,29.1-13.7,44.1 c-4,17.6-6.5,35.7-7.4,53.8c-0.8,17.4-0.5,35.3,2.5,52.5c2.7,15.5,10.8,32.1,26.9,37.1c8.5,2.6,18.6,1,25.8-4.1 c7-5,12.3-11.7,16-19.4c3.8-8,6.2-16.4,8.1-25c2.1-9.7,3.5-19.6,4.1-29.5c1.3-19-0.4-38.3-4.6-56.9c-3.7-16.2-9.5-32.3-18.5-46.3 c-2.8-4.3-5.8-8.5-9.3-12.5c8.3-17.4,18.4-33.9,30.1-49.3c14.5-18.5,31.2-35.2,49.7-49.7c18.7-14.3,39.2-26.3,60.8-35.7 c0.7-0.3,1.4-0.6,2.1-0.9c-4.2,12.4-7.9,25-11,37.8c-1.7,6.9-3.3,13.8-4.7,20.8c-0.7,3.3-0.5,6.6,1.3,9.6c1.5,2.6,4.5,5.1,7.5,5.7 c3.2,0.7,6.8,0.6,9.6-1.3c2.6-1.7,5.1-4.3,5.7-7.5c4.9-24.4,11.7-48.5,20.4-71.9c2.5-6.7,5.1-13.3,7.8-19.8 C350.2,25,349.6,21.2,348.4,18.7z M176.1,316c-1.5,10.1-3.5,20.5-7.3,30.1c-1.4,3-3,6-5,8.7c-1,1.1-2,2.2-3.1,3.2 c-0.6,0.4-1.3,0.8-2,1.2c-0.5,0.1-0.9,0.3-1.4,0.4c-0.5,0-0.9,0-1.4,0c-0.4-0.1-0.9-0.2-1.3-0.4c-0.5-0.3-0.9-0.5-1.4-0.8 c-0.6-0.6-1.2-1.2-1.8-1.8c-1.2-1.7-2.2-3.5-3-5.4c-1.6-4.2-2.7-8.6-3.3-13.1c-2.7-22.2-2.2-44.9,0.7-67.1c2.6-18.5,7-36.7,13-54.3 c2.7,4.4,5,8.9,7.1,13.6c5.1,12.5,8.3,25.7,10.3,39.1C178,284.8,178,300.5,176.1,316z" fill="#ffffff"/></g><g id="change2_1"><path d="M328.6,260.5c-1.4,2.7-4.6,4.9-7.5,5.7c-3.1,0.8-6.9,0.4-9.6-1.3c-6.3-3.8-12.5-7.6-18.8-11.4 c-2.2-1.3-4.3-2.6-6.5-3.9c-9.1,13-18.1,26.1-27.2,39.1c-1.9,2.8-4.2,4.7-7.5,5.7c-3.2,1-6.7,0.3-9.6-1.3c-2.7-1.4-4.9-4.6-5.7-7.5 c-0.8-2.9-0.5-7.1,1.3-9.6c4.2-6,8.3-12,12.5-18c5-7.2,9.9-14.3,14.9-21.5c-12.9-7.9-25.9-15.7-38.8-23.6c-2.9-1.7-4.7-4.3-5.7-7.5 c-1-3.2-0.3-6.7,1.3-9.6c1.4-2.7,4.6-4.9,7.5-5.7c3.1-0.8,6.9-0.4,9.6,1.3c6.3,3.8,12.5,7.6,18.8,11.4c7.2,4.4,14.5,8.8,21.7,13.2 c5-7.1,9.9-14.3,14.9-21.4c1.9-2.8,4.2-4.7,7.5-5.7c3.2-1,6.7-0.3,9.6,1.3c2.7,1.4,4.9,4.6,5.7,7.5c0.8,2.9,0.5,7.1-1.3,9.6 c-4.2,6-8.3,12-12.5,18c-0.9,1.2-1.7,2.5-2.6,3.7c7.9,4.8,15.7,9.5,23.6,14.3c2.9,1.7,4.7,4.3,5.7,7.5 C330.9,254.1,330.1,257.6,328.6,260.5z" fill="#605dc8"/></g><g id="change3_1"><path d="M106.7,122.4c0.1,3.3-1.5,6.5-3.7,8.8c-2.1,2.3-5.8,3.7-8.8,3.7c-3.5,0-6.2-1.5-8.8-3.7 c-2.1-1.7-4.2-3.4-6.3-5.1c-4.2-3.2-8.5-6.3-12.8-9.3c-16.1-11-33.3-20.5-51.3-28.2c-1.9-0.8-3.9-1.6-5.9-2.4 c-2.1-0.6-4-1.7-5.5-3.2c-0.7-0.8-1.3-1.7-2-2.5c-1.8-2.8-2-6.4-1.3-9.6c0.7-3,3.2-6,5.7-7.5c2.5-1.5,6.8-2.4,9.6-1.3 c7.4,2.9,14.8,6.1,22,9.5c23.5,11.1,45.3,25.3,65.3,41.9C105.6,115.7,106.6,119.3,106.7,122.4z M94,22.1c-1.7-2.7-4.3-4.9-7.5-5.7 c-3-0.8-7-0.5-9.6,1.3c-2.7,1.7-5,4.3-5.7,7.5c-0.7,3.2-0.5,6.8,1.3,9.6C82,50,91.7,65.2,101.3,80.4c1.7,2.7,4.3,4.9,7.5,5.7 c3,0.8,7,0.5,9.6-1.3c2.7-1.7,5-4.3,5.7-7.5c0.7-3.2,0.5-6.8-1.3-9.6C113.2,52.6,103.6,37.4,94,22.1z M169.8,64.2 c-2.2-11.3-4.4-22.6-6.7-33.9c-0.6-2.9-3.2-6-5.7-7.5c-2.7-1.6-6.6-2.2-9.6-1.3c-3,1-5.9,2.9-7.5,5.7c-1.6,3.1-1.9,6.2-1.3,9.6 c2.2,11.3,4.4,22.6,6.7,33.9c0.6,2.9,3.2,6,5.7,7.5c2.7,1.6,6.6,2.2,9.6,1.3c3-1,5.9-2.9,7.5-5.7C170.2,70.7,170.5,67.6,169.8,64.2z" fill="#ffffff"/></g></svg>